<svg version="1" xmlns="http://www.w3.org/2000/svg" width="682.667" height="682.667" viewBox="0 0 512 512"><path d="M72.3 190.8c-2.1.7-1.2 2.2 13 21.8 8.4 11.6 18.8 26 23.2 32 4.4 6 11.8 16.2 16.5 22.7 4.6 6.5 9.8 13.4 11.6 15.5l3.3 3.7.1-14.3V258h14.8c34.2-.1 47.9-3.5 60.6-15.1 7.3-6.6 10-11.7 10-18.9.2-13.3-11.3-24.4-31.9-31.1-6.9-2.2-8-2.2-63-2.5-30.8-.2-57 0-58.2.4zm103.4 24.5c6.4 3.4 8.9 9 5.8 13.3-3.2 4.6-7.9 5.8-25.2 6.2l-16.3.4v-22.4l16.3.4c12.8.3 16.9.7 19.4 2.1zm198.2-21.4c-7 .4-12.3 1.2-13.2 1.9-1.8 1.5-6.6 13.6-16.7 42.3l-1.3 3.6-7.5.7c-4.1.3-19.2.6-33.4.6-24.2 0-25.9-.1-25.6-1.8.3-1.5 2.8-1.8 26.5-2.7 21-.8 26.5-1.3 27.7-2.5 2.2-2.3 5.7-12 5.1-14-.3-1-1.6-2.1-2.8-2.4-1.2-.3-23.8-.6-50.3-.6h-48l-2.7 2.8c-1.8 1.9-4.7 8.3-8.4 18.3-6.5 17.9-7.4 22.2-4.6 23.4 5.5 2.3 103.9 1.1 112.3-1.4 3.7-1.1 22.7-5.2 47-10.2 7.9-1.6 15.2-3.7 16.2-4.5.9-.9 2.5-3.6 3.5-6s2.2-4.4 2.6-4.4c1.1 0 5.1 4 28.7 28.7l20.3 21.3H479c24 0 30-.3 30.9-1.4 1.4-1.7.2-3.2-28.9-34.5-12.4-13.4-22.8-24.8-23.2-25.5-.4-.7 7-5.5 21-13.5 25.2-14.5 29-17 27.1-18.2-.8-.5-14.8-.9-31.1-.9h-29.7l-8.8 5.3c-13.2 8-27.1 15.3-27.8 14.6-.3-.4.7-4.3 2.2-8.7 2.2-6.5 2.5-8.4 1.5-9.4-1.5-1.5-20.6-1.9-38.3-.9z"/><path d="M264.7 195l-21.9.5-2.8 3.2c-1.6 1.8-3.6 5.6-4.5 8.5-2.6 8.8-5.9 8.3 51.5 8.3 48.7 0 50-.1 52.7-2.1 3.6-2.6 7.3-9.8 7.3-14.1 0-2.7-.5-3.5-2.6-4.3-2.6-1-40-1-79.7 0zM39.3 231.2c-4.4 6.2-8.5 12.3-9.2 13.5-2.1 4 1.1 4.6 20.5 3.8 9.6-.4 17.4-1 17.4-1.3 0-1-16.1-23-18.5-25.2l-2.3-2.1-7.9 11.3zM378 254.1c-6.9 1.5-21.3 4.7-32 7l-19.5 4.2-88.5.9c-49.4.5-89.5 1.3-90.7 1.8-2.1.9-2.3 1.6-2.3 8.1v7.2l140.7-.7c77.4-.4 141-.9 141.2-1.2.3-.3-6.2-7.2-14.5-15.5-17.4-17.3-14.8-16.4-34.4-11.8zM12.7 268.2c-.2.7-3 4.8-6.1 9.1-3.1 4.3-5.6 8-5.6 8.3 0 .2 21.4.4 47.6.4h47.6l-1.7-2.8c-1-1.5-4.1-5.7-6.9-9.5l-5.1-6.7H47.9c-26.8 0-34.8.3-35.2 1.2zm-8.5 46.3L1 321h2.5c1.4 0 2.8-.7 3.1-1.5.4-.8 1.5-1.5 2.5-1.5 1.1 0 2.2.7 2.5 1.5.4.8 1.7 1.5 3 1.5H17l-2.4-6.3c-1.9-5-2.7-6.3-4.7-6.5-2.1-.2-2.9.6-5.7 6.3zm6.2-1c.3.9 0 1.5-.9 1.5s-1.2-.6-.9-1.5c.4-.8.7-1.5.9-1.5.2 0 .5.7.9 1.5zm10.8-4.3c-1.7 1.7-1.5 3.2.8 5.3 2.7 2.4 2.5 3.5-.5 3.5-1.6 0-2.5.6-2.5 1.6 0 2.1 6.9 1.5 8.4-.8.8-1.3.5-2.2-1.2-4.1-2.7-2.9-2.8-3.7-.2-3.7 1.1 0 2-.7 2-1.5 0-1.8-5-2.1-6.8-.3zm9.8.8c-2.6 2.6-2.6 6.4 0 9 4.1 4.1 12 1.2 12-4.5 0-3.4-3.3-6.5-7-6.5-1.7 0-3.9.9-5 2zm7.5 2.1c1.2 1.9-.4 5.9-2.5 5.9-2.5 0-3.3-1.5-2.6-4.6.7-2.5 3.9-3.4 5.1-1.3zm9.7-2.9c-1.7 1.7-1.5 3.2.8 5.3 2.7 2.4 2.5 3.5-.5 3.5-1.6 0-2.5.6-2.5 1.6 0 2.1 6.9 1.5 8.4-.8.8-1.3.5-2.2-1.2-4.1-2.7-2.9-2.8-3.7-.2-3.7 1.1 0 2-.7 2-1.5 0-1.8-5-2.1-6.8-.3zm8.8 5.3c0 5.8.2 6.5 2 6.5s2-.7 2-6.5-.2-6.5-2-6.5-2 .7-2 6.5zm8.2 0L62 321h2.5c1.4 0 2.8-.7 3.1-1.5.4-.8 1.5-1.5 2.5-1.5 1.1 0 2.2.7 2.5 1.5.4.8 1.7 1.5 3 1.5H78l-2.4-6.3c-1.9-5-2.7-6.3-4.7-6.5-2.1-.2-2.9.6-5.7 6.3zm6.2-1c.3.9 0 1.5-.9 1.5s-1.2-.6-.9-1.5c.4-.8.7-1.5.9-1.5.2 0 .5.7.9 1.5zm9.8-4.3c-1.7 1.7-1.5 3.2.8 5.3 2.7 2.4 2.5 3.5-.5 3.5-1.6 0-2.5.6-2.5 1.6 0 2.1 6.9 1.5 8.4-.8.8-1.3.5-2.2-1.2-4.1-2.7-2.9-2.8-3.7-.2-3.7 1.1 0 2-.7 2-1.5 0-1.8-5-2.1-6.8-.3zm8.8 5.3c0 5.8.2 6.5 2 6.5s2-.7 2-6.5-.2-6.5-2-6.5-2 .7-2 6.5zm12-.1c0 5.9.2 6.6 2 6.6 1.6 0 2-.7 2-3.8 0-2.4.3-3.2.9-2.4 1.1 1.8 4.1 1.2 5.5-1.1 1.9-2.9-.4-5.2-5.8-5.5l-4.6-.3v6.5zm7-2.4c0 .5-.7 1-1.5 1s-1.5-.5-1.5-1c0-.6.7-1 1.5-1s1.5.4 1.5 1zm5 2.5v6.5h5.5c4.2 0 5.5-.3 5.5-1.5 0-1-1.1-1.5-3.5-1.5-1.9 0-3.5-.5-3.5-1 0-.6 1.4-1 3-1 2 0 3-.5 3-1.5s-1-1.5-3-1.5c-1.6 0-3-.5-3-1 0-.6 1.6-1 3.5-1 2.4 0 3.5-.5 3.5-1.5 0-1.2-1.3-1.5-5.5-1.5H114v6.5zm13 0c0 5.8.2 6.5 2 6.5 1.6 0 2-.7 2-3.8l.1-3.7 2 3.7c1.4 2.8 2.6 3.8 4.4 3.8 2.4 0 2.5-.3 2.5-6.5 0-5.8-.2-6.5-2-6.5-1.7 0-2 .7-2.1 4.2v4.3l-2.2-4.3c-1.5-3.1-2.7-4.2-4.4-4.2-2.2 0-2.3.4-2.3 6.5zm18.6-4.4c-6.5 5.1.6 13.4 8.8 10.3 1-.4 1.6-1.8 1.6-4 0-3.1-.3-3.4-3-3.4-2 0-3 .5-3 1.5 0 .8.5 1.5 1 1.5.6 0 1 .5 1 1.1 0 1.8-4.5.5-4.8-1.4-.5-2.8 1.7-4.7 5.4-4.7 2.4 0 3.4-.5 3.4-1.5 0-2.3-7.2-1.9-10.4.6zm12.4 3.4c0 5.9 1.3 7.5 6.5 7.5s6.5-1.6 6.5-7.5c0-4.8-.3-5.5-1.9-5.5-1.7 0-2 .8-2.3 4.7-.3 4-.6 4.8-2.3 4.8-1.7 0-2-.8-2.3-4.8-.3-3.9-.6-4.7-2.3-4.7-1.6 0-1.9.7-1.9 5.5zm17.2-4.3c-1.7 1.7-1.5 3.2.8 5.3 2.7 2.4 2.5 3.5-.5 3.5-1.6 0-2.5.6-2.5 1.6 0 2.1 6.9 1.5 8.4-.8.8-1.3.5-2.2-1.2-4.1-2.7-2.9-2.8-3.7-.2-3.7 1.1 0 2-.7 2-1.5 0-1.8-5-2.1-6.8-.3zm10 5.3L182 321h2.5c1.4 0 2.8-.7 3.1-1.5.4-.8 1.5-1.5 2.5-1.5 1.1 0 2.2.7 2.5 1.5.4.8 1.7 1.5 3 1.5h2.4l-2.4-6.3c-1.9-5-2.7-6.3-4.7-6.5-2.1-.2-2.9.6-5.7 6.3zm6.2-1c.3.9 0 1.5-.9 1.5s-1.2-.6-.9-1.5c.4-.8.7-1.5.9-1.5.2 0 .5.7.9 1.5zm7.6 1c0 5.8.2 6.5 2 6.5 1.5 0 2-.7 2-2.5 0-2 .5-2.5 2.5-2.5s2.5.5 2.5 2.5c0 1.8.5 2.5 2 2.5 1.8 0 2-.7 2-6.5s-.2-6.5-2-6.5c-1.5 0-2 .7-2 2.5 0 2-.5 2.5-2.5 2.5s-2.5-.5-2.5-2.5c0-1.8-.5-2.5-2-2.5-1.8 0-2 .7-2 6.5zm17.2 0L213 321h2.5c1.4 0 2.8-.7 3.1-1.5.4-.8 1.5-1.5 2.5-1.5 1.1 0 2.2.7 2.5 1.5.4.8 1.7 1.5 3 1.5h2.4l-2.4-6.3c-1.9-5-2.7-6.3-4.7-6.5-2.1-.2-2.9.6-5.7 6.3zm6.2-1c.3.9 0 1.5-.9 1.5s-1.2-.6-.9-1.5c.4-.8.7-1.5.9-1.5.2 0 .5.7.9 1.5zm13.6 1v6.5h5.5c4.2 0 5.5-.3 5.5-1.5 0-1-1.1-1.5-3.5-1.5-1.9 0-3.5-.5-3.5-1 0-.6 1.4-1 3-1 2 0 3-.5 3-1.5s-1-1.5-3-1.5c-1.6 0-3-.5-3-1 0-.6 1.6-1 3.5-1 2.4 0 3.5-.5 3.5-1.5 0-1.2-1.3-1.5-5.5-1.5H236v6.5zm13 0c0 5.8.2 6.5 2 6.5 1.6 0 2-.7 2-3.8l.1-3.7 2 3.7c1.4 2.8 2.6 3.8 4.4 3.8 2.4 0 2.5-.3 2.5-6.5 0-5.8-.2-6.5-2-6.5-1.7 0-2 .7-2.1 4.2v4.3l-2.2-4.3c-1.5-3.1-2.7-4.2-4.4-4.2-2.2 0-2.3.4-2.3 6.5zm18.6-4.4c-6.5 5.1.6 13.4 8.8 10.3 1-.4 1.6-1.8 1.6-4 0-3.1-.3-3.4-3-3.4-2 0-3 .5-3 1.5 0 .8.5 1.5 1 1.5.6 0 1 .5 1 1.1 0 1.8-4.5.5-4.8-1.4-.5-2.8 1.7-4.7 5.4-4.7 2.4 0 3.4-.5 3.4-1.5 0-2.3-7.2-1.9-10.4.6zm12.4 4.4c0 5.8.2 6.5 2 6.5s2-.7 2-6.5-.2-6.5-2-6.5-2 .7-2 6.5zm6 0c0 5.8.2 6.5 2 6.5 1.6 0 2-.7 2-3.8l.1-3.7 2 3.7c1.4 2.8 2.6 3.8 4.4 3.8 2.4 0 2.5-.3 2.5-6.5 0-5.8-.2-6.5-2-6.5-1.7 0-2 .7-2.1 4.2v4.3l-2.2-4.3c-1.5-3.1-2.7-4.2-4.4-4.2-2.2 0-2.3.4-2.3 6.5zm16 0v6.5h5.5c4.2 0 5.5-.3 5.5-1.5 0-1-1.1-1.5-3.5-1.5-1.9 0-3.5-.5-3.5-1 0-.6 1.4-1 3-1 2 0 3-.5 3-1.5s-1-1.5-3-1.5c-1.6 0-3-.5-3-1 0-.6 1.6-1 3.5-1 2.4 0 3.5-.5 3.5-1.5 0-1.2-1.3-1.5-5.5-1.5H302v6.5zm13 0v6.5h5.5c4.2 0 5.5-.3 5.5-1.5 0-1-1.1-1.5-3.5-1.5-1.9 0-3.5-.5-3.5-1 0-.6 1.4-1 3-1 2 0 3-.5 3-1.5s-1-1.5-3-1.5c-1.6 0-3-.5-3-1 0-.6 1.6-1 3.5-1 2.4 0 3.5-.5 3.5-1.5 0-1.2-1.3-1.5-5.5-1.5H315v6.5zm13-.1c0 5.9.2 6.6 2 6.6 1.7 0 2-.7 2-5s.3-5 2-5c2.3 0 2.7 1.8.6 2.6-1.1.4-1.2 1.2-.3 4 .8 2.6 1.6 3.4 3.4 3.4 2.3 0 2.3-.1.9-2.8-1.3-2.6-1.3-3.1.2-4.6 2.8-2.8.4-5-5.7-5.4l-5.1-.3v6.5zm13 .1c0 5.8.2 6.5 2 6.5s2-.7 2-6.5-.2-6.5-2-6.5-2 .7-2 6.5zm7 0c0 5.8.2 6.5 2 6.5 1.6 0 2-.7 2-3.8l.1-3.7 2 3.7c1.4 2.8 2.6 3.8 4.4 3.8 2.4 0 2.5-.3 2.5-6.5 0-5.8-.2-6.5-2-6.5-1.7 0-2 .7-2.1 4.2v4.3l-2.2-4.3c-1.5-3.1-2.7-4.2-4.4-4.2-2.2 0-2.3.4-2.3 6.5zm18.6-4.4c-6.5 5.1.6 13.4 8.8 10.3 1-.4 1.6-1.8 1.6-4 0-3.1-.3-3.4-3-3.4-2 0-3 .5-3 1.5 0 .8.5 1.5 1 1.5.6 0 1 .5 1 1.1 0 1.8-4.5.5-4.8-1.4-.5-2.8 1.7-4.7 5.4-4.7 2.4 0 3.4-.5 3.4-1.5 0-2.3-7.2-1.9-10.4.6zm17.4 4.4c0 5.8.2 6.5 1.9 6.5 1.5 0 2.1-.8 2.3-3.3l.3-3.2 1.8 3.2c1.6 3 2.1 3.3 6.8 3.3 3.5 0 5.1-.4 5.5-1.5.4-.8 1.5-1.5 2.5-1.5 1.1 0 2.2.7 2.5 1.5.4.8 1.7 1.5 3 1.5h2.4l-2.4-6.3c-1.9-5.1-2.7-6.3-4.7-6.5-2.1-.3-2.9.5-5.4 5.8-1.6 3.3-3.3 5.9-3.8 5.7-.5-.1-1.6-1.4-2.4-2.9-1.5-2.4-1.5-2.7.6-5.7l2.2-3.1h-2.3c-1.6 0-3 1.1-4.3 3.2l-2 3.3-.3-3.3c-.2-2.4-.8-3.2-2.3-3.2-1.7 0-1.9.7-1.9 6.5zm22.4-1c.3.9 0 1.5-.9 1.5s-1.2-.6-.9-1.5c.4-.8.7-1.5.9-1.5.2 0 .5.7.9 1.5zm8.6.9c0 5.9.2 6.6 2 6.6 1.7 0 2-.7 2-5s.3-5 2-5c2.3 0 2.7 1.8.6 2.6-1.1.4-1.2 1.2-.3 4 1 3.2 1.3 3.4 5.4 3.4 3 0 4.5-.5 4.9-1.5.4-.8 1.5-1.5 2.5-1.5 1.1 0 2.2.7 2.5 1.5.4.8 1.7 1.5 3 1.5h2.4l-2.4-6.3c-1.9-5.1-2.7-6.3-4.7-6.5-2.1-.3-2.9.5-5.4 5.8-2.8 5.8-2.9 6-4.1 3.8-1-1.9-1-2.6.4-4.1 2.7-3 .4-5.1-5.7-5.5l-5.1-.3v6.5zm20.4-.9c.3.9 0 1.5-.9 1.5s-1.2-.6-.9-1.5c.4-.8.7-1.5.9-1.5.2 0 .5.7.9 1.5zm9.1-3.3c.3 1.3.9 4.1 1.3 6.3.7 3.3 1.2 4 3.2 4s2.7-.8 3.6-4c1.1-3.4 1.3-3.6 1.3-1.3.1 4.1 1.1 5.8 3.5 5.8 1.8 0 2.6-1.1 4.3-6.5 2-6.2 2-6.5.3-6.5-1.4 0-2.3 1.3-3.3 4.7-1.1 3.5-1.5 4.1-1.6 2.3-.4-8.4-4.2-9.7-6.4-2.3l-1.3 4.8-.8-4.8c-.6-3.7-1.1-4.7-2.7-4.7-1.5 0-1.8.5-1.4 2.2zm21.7 4.3L463 321h2.5c1.4 0 2.8-.7 3.1-1.5.4-.8 1.5-1.5 2.5-1.5 1.1 0 2.2.7 2.5 1.5.4.8 1.7 1.5 3 1.5h2.4l-2.4-6.3c-1.9-5-2.7-6.3-4.7-6.5-2.1-.2-2.9.6-5.7 6.3zm6.2-1c.3.9 0 1.5-.9 1.5s-1.2-.6-.9-1.5c.4-.8.7-1.5.9-1.5.2 0 .5.7.9 1.5zm8.6 1c0 5.8.2 6.5 2 6.5 1.6 0 2-.7 2-3.8l.1-3.7 2 3.7c1.4 2.8 2.6 3.8 4.4 3.8 2.4 0 2.5-.3 2.5-6.5 0-5.8-.2-6.5-2-6.5-1.7 0-2 .7-2.1 4.2v4.3l-2.2-4.3c-1.5-3.1-2.7-4.2-4.4-4.2-2.2 0-2.3.4-2.3 6.5zm18.6-4.4c-6.5 5.1.6 13.4 8.8 10.3 1-.4 1.6-1.8 1.6-4 0-3.1-.3-3.4-3-3.4-2 0-3 .5-3 1.5 0 .8.5 1.5 1 1.5.6 0 1 .5 1 1.1 0 1.8-4.5.5-4.8-1.4-.5-2.8 1.7-4.7 5.4-4.7 2.4 0 3.4-.5 3.4-1.5 0-2.3-7.2-1.9-10.4.6z"/></svg>